# This file uses centimeters as units for non-parametric coordinates.

mtllib swith.mtl
g default
v -0.352147 12.777998 0.101129
v -0.211288 12.777998 0.101129
v -0.070429 12.777998 0.101129
v 0.070429 12.777998 0.101129
v 0.211288 12.777998 0.101129
v 0.352147 12.777998 0.101129
v -0.352147 12.972135 0.101129
v -0.211288 12.972135 0.101129
v -0.070429 12.972135 0.101129
v 0.070429 12.972135 0.101129
v 0.211288 12.972135 0.101129
v 0.352147 12.972135 0.101129
v -0.352147 13.166271 0.101129
v -0.211288 13.166271 0.101129
v 0.211288 13.166271 0.101129
v 0.352147 13.166271 0.101129
v -0.352147 13.360408 0.101129
v -0.211288 13.360408 0.101129
v -0.070429 13.360408 0.101129
v 0.070429 13.360408 0.101129
v 0.211288 13.360408 0.101129
v 0.352147 13.360408 0.101129
v -0.352147 13.554543 0.101129
v -0.211288 13.554543 0.101129
v 0.211288 13.554543 0.101129
v 0.352147 13.554543 0.101129
v -0.352147 13.748683 0.101129
v -0.211288 13.748683 0.101129
v -0.070429 13.748683 0.101129
v 0.070429 13.748683 0.101129
v 0.211288 13.748683 0.101129
v 0.352147 13.748683 0.101129
v -0.352147 13.942819 0.101129
v -0.211288 13.942819 0.101129
v -0.070429 13.942819 0.101129
v 0.070429 13.942819 0.101129
v 0.211288 13.942819 0.101129
v 0.352147 13.942819 0.101129
v -0.352147 13.942819 -0.101129
v -0.211288 13.942819 -0.101129
v -0.070429 13.942819 -0.101129
v 0.070429 13.942819 -0.101129
v 0.211288 13.942819 -0.101129
v 0.352147 13.942819 -0.101129
v -0.352147 13.748681 -0.101129
v -0.211288 13.748681 -0.101129
v -0.070429 13.748681 -0.101129
v 0.070429 13.748681 -0.101129
v 0.211288 13.748681 -0.101129
v 0.352147 13.748681 -0.101129
v -0.352147 13.554543 -0.101129
v -0.211288 13.554543 -0.101129
v -0.070429 13.554543 -0.101129
v 0.070429 13.554543 -0.101129
v 0.211288 13.554543 -0.101129
v 0.352147 13.554543 -0.101129
v -0.352147 13.360408 -0.101129
v -0.211288 13.360408 -0.101129
v -0.070429 13.360408 -0.101129
v 0.070429 13.360408 -0.101129
v 0.211288 13.360408 -0.101129
v 0.352147 13.360408 -0.101129
v -0.352147 13.166271 -0.101129
v -0.211288 13.166271 -0.101129
v -0.070429 13.166271 -0.101129
v 0.070429 13.166271 -0.101129
v 0.211288 13.166271 -0.101129
v 0.352147 13.166271 -0.101129
v -0.352147 12.972134 -0.101129
v -0.211288 12.972134 -0.101129
v -0.070429 12.972134 -0.101129
v 0.070429 12.972134 -0.101129
v 0.211288 12.972134 -0.101129
v 0.352147 12.972134 -0.101129
v -0.352147 12.777998 -0.101129
v -0.211288 12.777998 -0.101129
v -0.070429 12.777998 -0.101129
v 0.070429 12.777998 -0.101129
v 0.211288 12.777998 -0.101129
v 0.352147 12.777998 -0.101129
v -0.193259 13.376973 0.101129
v -0.064420 13.376973 0.101129
v -0.193259 13.554543 0.101129
v 0.064420 13.376973 0.101129
v 0.193259 13.376973 0.101129
v 0.193259 13.554543 0.101129
v -0.064420 13.732117 0.101129
v -0.193259 13.732117 0.101129
v 0.064420 13.732117 0.101129
v 0.193259 13.732117 0.101129
v -0.188816 12.992782 0.101129
v -0.062939 12.992782 0.101129
v -0.188816 13.166271 0.101129
v 0.062939 12.992782 0.101129
v 0.188816 12.992782 0.101129
v 0.188816 13.166271 0.101129
v -0.062939 13.339759 0.101129
v -0.188816 13.339759 0.101129
v 0.062939 13.339759 0.101129
v 0.188816 13.339759 0.101129
v -0.185779 12.992782 0.221729
v -0.061926 12.992782 0.199243
v -0.061926 13.166271 0.199243
v -0.185779 13.166271 0.221729
v 0.061926 12.992782 0.176756
v 0.061926 13.166271 0.176756
v 0.185779 12.992782 0.154269
v 0.185779 13.166271 0.154269
v -0.061926 13.339759 0.199243
v -0.185779 13.339759 0.221729
v 0.061926 13.339759 0.176756
v 0.185779 13.339759 0.154269
v -0.190151 13.376973 0.222523
v -0.063384 13.376973 0.199507
v -0.063384 13.554543 0.199507
v -0.190151 13.554543 0.222523
v 0.063384 13.376973 0.176491
v 0.063384 13.554543 0.176491
v 0.190151 13.376973 0.153475
v 0.190151 13.554543 0.153475
v -0.063384 13.732117 0.199507
v -0.190151 13.732117 0.222523
v 0.063384 13.732117 0.176491
v 0.190151 13.732117 0.153475
vt 0.375000 0.000000
vt 0.425000 0.000000
vt 0.475000 0.000000
vt 0.525000 0.000000
vt 0.575000 0.000000
vt 0.625000 0.000000
vt 0.375000 0.041667
vt 0.425000 0.041667
vt 0.475000 0.041667
vt 0.525000 0.041667
vt 0.575000 0.041667
vt 0.625000 0.041667
vt 0.375000 0.083333
vt 0.425000 0.083333
vt 0.475000 0.083333
vt 0.525000 0.083333
vt 0.575000 0.083333
vt 0.625000 0.083333
vt 0.375000 0.125000
vt 0.425000 0.125000
vt 0.475000 0.125000
vt 0.525000 0.125000
vt 0.575000 0.125000
vt 0.625000 0.125000
vt 0.375000 0.166667
vt 0.425000 0.166667
vt 0.475000 0.166667
vt 0.525000 0.166667
vt 0.575000 0.166667
vt 0.625000 0.166667
vt 0.375000 0.208333
vt 0.425000 0.208333
vt 0.475000 0.208333
vt 0.525000 0.208333
vt 0.575000 0.208333
vt 0.625000 0.208333
vt 0.375000 0.250000
vt 0.425000 0.250000
vt 0.475000 0.250000
vt 0.525000 0.250000
vt 0.575000 0.250000
vt 0.625000 0.250000
vt 0.375000 0.500000
vt 0.425000 0.500000
vt 0.475000 0.500000
vt 0.525000 0.500000
vt 0.575000 0.500000
vt 0.625000 0.500000
vt 0.375000 0.541667
vt 0.425000 0.541667
vt 0.475000 0.541667
vt 0.525000 0.541667
vt 0.575000 0.541667
vt 0.625000 0.541667
vt 0.375000 0.583333
vt 0.425000 0.583333
vt 0.475000 0.583333
vt 0.525000 0.583333
vt 0.575000 0.583333
vt 0.625000 0.583333
vt 0.375000 0.625000
vt 0.425000 0.625000
vt 0.475000 0.625000
vt 0.525000 0.625000
vt 0.575000 0.625000
vt 0.625000 0.625000
vt 0.375000 0.666667
vt 0.425000 0.666667
vt 0.475000 0.666667
vt 0.525000 0.666667
vt 0.575000 0.666667
vt 0.625000 0.666667
vt 0.375000 0.708333
vt 0.425000 0.708333
vt 0.475000 0.708333
vt 0.525000 0.708333
vt 0.575000 0.708333
vt 0.625000 0.708333
vt 0.375000 0.750000
vt 0.425000 0.750000
vt 0.475000 0.750000
vt 0.525000 0.750000
vt 0.575000 0.750000
vt 0.625000 0.750000
vt 0.375000 1.000000
vt 0.425000 1.000000
vt 0.475000 1.000000
vt 0.525000 1.000000
vt 0.575000 1.000000
vt 0.625000 1.000000
vt 0.875000 0.000000
vt 0.875000 0.041667
vt 0.875000 0.083333
vt 0.875000 0.125000
vt 0.875000 0.166667
vt 0.875000 0.208333
vt 0.875000 0.250000
vt 0.125000 0.000000
vt 0.125000 0.041667
vt 0.125000 0.083333
vt 0.125000 0.125000
vt 0.125000 0.166667
vt 0.125000 0.208333
vt 0.125000 0.250000
vt 0.425000 0.125000
vt 0.475000 0.125000
vt 0.425000 0.166667
vt 0.525000 0.125000
vt 0.575000 0.125000
vt 0.575000 0.166667
vt 0.475000 0.208333
vt 0.425000 0.208333
vt 0.525000 0.208333
vt 0.575000 0.208333
vt 0.425000 0.041667
vt 0.475000 0.041667
vt 0.425000 0.083333
vt 0.525000 0.041667
vt 0.575000 0.041667
vt 0.575000 0.083333
vt 0.475000 0.125000
vt 0.425000 0.125000
vt 0.525000 0.125000
vt 0.575000 0.125000
vt 0.425000 0.041667
vt 0.475000 0.041667
vt 0.425000 0.083333
vt 0.525000 0.041667
vt 0.575000 0.041667
vt 0.575000 0.083333
vt 0.475000 0.125000
vt 0.425000 0.125000
vt 0.525000 0.125000
vt 0.575000 0.125000
vt 0.425000 0.125000
vt 0.475000 0.125000
vt 0.425000 0.166667
vt 0.525000 0.125000
vt 0.575000 0.125000
vt 0.575000 0.166667
vt 0.475000 0.208333
vt 0.425000 0.208333
vt 0.525000 0.208333
vt 0.575000 0.208333
vn 0.000000 0.000000 1.000000
vn 0.000000 0.000000 1.000000
vn 0.000000 0.000000 1.000000
vn 0.000000 0.000000 1.000000
vn 0.000000 0.000000 1.000000
vn 0.000000 0.000000 1.000000
vn 0.000000 0.000000 1.000000
vn 0.000000 0.000000 1.000000
vn 0.000000 0.000000 1.000000
vn 0.000000 0.000000 1.000000
vn 0.000000 0.000000 1.000000
vn 0.000000 0.000000 1.000000
vn 0.000000 0.000000 1.000000
vn 0.000000 0.000000 1.000000
vn 0.178641 0.000000 0.983914
vn 0.178641 0.000000 0.983914
vn 0.178641 0.000000 0.983914
vn 0.178641 0.000000 0.983914
vn 0.178641 0.000000 0.983914
vn 0.178641 0.000000 0.983914
vn 0.178641 0.000000 0.983914
vn 0.178641 0.000000 0.983914
vn 0.000000 0.000000 1.000000
vn 0.000000 0.000000 1.000000
vn 0.000000 0.000000 1.000000
vn 0.000000 0.000000 1.000000
vn 0.178641 0.000000 0.983914
vn 0.178641 0.000000 0.983914
vn 0.178641 0.000000 0.983914
vn 0.178641 0.000000 0.983914
vn 0.000000 0.000000 1.000000
vn 0.000000 0.000000 1.000000
vn 0.000000 0.000000 1.000000
vn 0.000000 0.000000 1.000000
vn 0.178641 0.000000 0.983914
vn 0.178640 0.000000 0.983914
vn 0.178641 0.000000 0.983914
vn 0.178641 0.000000 0.983914
vn 0.178641 0.000000 0.983914
vn 0.178641 0.000000 0.983914
vn 0.178641 0.000000 0.983914
vn 0.178641 0.000000 0.983914
vn 0.000000 0.000000 1.000000
vn 0.000000 0.000000 1.000000
vn 0.000000 0.000000 1.000000
vn 0.000000 0.000000 1.000000
vn 0.178641 0.000000 0.983914
vn 0.178641 0.000000 0.983914
vn 0.178641 0.000000 0.983914
vn 0.178641 0.000000 0.983914
vn 0.000000 0.000000 1.000000
vn 0.000000 0.000000 1.000000
vn 0.000000 0.000000 1.000000
vn 0.000000 0.000000 1.000000
vn 0.000000 0.000000 1.000000
vn 0.000000 0.000000 1.000000
vn 0.000000 0.000000 1.000000
vn 0.000000 0.000000 1.000000
vn 0.000000 0.000000 1.000000
vn 0.000000 0.000000 1.000000
vn 0.000000 1.000000 0.000000
vn 0.000000 1.000000 0.000000
vn 0.000000 1.000000 0.000000
vn 0.000000 1.000000 0.000000
vn 0.000000 1.000000 0.000000
vn 0.000000 1.000000 0.000000
vn 0.000000 1.000000 0.000000
vn 0.000000 1.000000 0.000000
vn 0.000000 1.000000 0.000000
vn 0.000000 1.000000 0.000000
vn 0.000000 1.000000 0.000000
vn 0.000000 1.000000 0.000000
vn 0.000000 0.000000 -1.000000
vn 0.000000 0.000000 -1.000000
vn 0.000000 0.000000 -1.000000
vn 0.000000 0.000000 -1.000000
vn 0.000000 0.000000 -1.000000
vn 0.000000 0.000000 -1.000000
vn 0.000000 0.000000 -1.000000
vn 0.000000 0.000000 -1.000000
vn 0.000000 0.000000 -1.000000
vn 0.000000 0.000000 -1.000000
vn 0.000000 0.000000 -1.000000
vn 0.000000 0.000000 -1.000000
vn 0.000000 0.000000 -1.000000
vn 0.000000 0.000000 -1.000000
vn 0.000000 0.000000 -1.000000
vn 0.000000 0.000000 -1.000000
vn 0.000000 0.000000 -1.000000
vn 0.000000 0.000000 -1.000000
vn 0.000000 0.000000 -1.000000
vn 0.000000 0.000000 -1.000000
vn 0.000000 0.000000 -1.000000
vn 0.000000 0.000000 -1.000000
vn 0.000000 0.000000 -1.000000
vn 0.000000 0.000000 -1.000000
vn 0.000000 0.000000 -1.000000
vn 0.000000 0.000000 -1.000000
vn 0.000000 0.000000 -1.000000
vn 0.000000 0.000000 -1.000000
vn 0.000000 0.000000 -1.000000
vn 0.000000 0.000000 -1.000000
vn 0.000000 0.000000 -1.000000
vn 0.000000 0.000000 -1.000000
vn 0.000000 0.000000 -1.000000
vn 0.000000 0.000000 -1.000000
vn 0.000000 0.000000 -1.000000
vn 0.000000 0.000000 -1.000000
vn 0.000000 0.000000 -1.000000
vn 0.000000 0.000000 -1.000000
vn 0.000000 0.000000 -1.000000
vn 0.000000 0.000000 -1.000000
vn 0.000000 0.000000 -1.000000
vn 0.000000 0.000000 -1.000000
vn 0.000000 -1.000000 0.000000
vn 0.000000 -1.000000 0.000000
vn 0.000000 -1.000000 0.000000
vn 0.000000 -1.000000 0.000000
vn 0.000000 -1.000000 0.000000
vn 0.000000 -1.000000 0.000000
vn 0.000000 -1.000000 0.000000
vn 0.000000 -1.000000 0.000000
vn 0.000000 -1.000000 0.000000
vn 0.000000 -1.000000 0.000000
vn 0.000000 -1.000000 0.000000
vn 0.000000 -1.000000 0.000000
vn 1.000000 0.000000 0.000000
vn 1.000000 0.000000 0.000000
vn 1.000000 0.000000 0.000000
vn 1.000000 0.000000 0.000000
vn 1.000000 0.000000 0.000000
vn 1.000000 0.000000 0.000000
vn 1.000000 0.000000 0.000000
vn 1.000000 0.000000 0.000000
vn 1.000000 0.000000 0.000000
vn 1.000000 0.000000 0.000000
vn 1.000000 0.000000 0.000000
vn 1.000000 0.000000 0.000000
vn 1.000000 0.000000 0.000000
vn 1.000000 0.000000 0.000000
vn -1.000000 0.000000 0.000000
vn -1.000000 0.000000 0.000000
vn -1.000000 0.000000 0.000000
vn -1.000000 0.000000 0.000000
vn -1.000000 0.000000 0.000000
vn -1.000000 0.000000 0.000000
vn -1.000000 0.000000 0.000000
vn -1.000000 0.000000 0.000000
vn -1.000000 0.000000 0.000000
vn -1.000000 0.000000 0.000000
vn -1.000000 0.000000 0.000000
vn -1.000000 0.000000 0.000000
vn -1.000000 0.000000 0.000000
vn -1.000000 0.000000 0.000000
vn 0.000000 0.000000 1.000000
vn 0.000000 0.000000 1.000000
vn 0.000000 0.000000 1.000000
vn 0.000000 0.000000 1.000000
vn 0.000000 0.000000 1.000000
vn 0.000000 0.000000 1.000000
vn 0.000000 0.000000 1.000000
vn 0.000000 0.000000 1.000000
vn 0.000000 0.000000 1.000000
vn 0.000000 0.000000 1.000000
vn 0.000000 0.000000 1.000000
vn 0.000000 0.000000 1.000000
vn 0.000000 0.000000 1.000000
vn 0.000000 0.000000 1.000000
vn 0.000000 0.000000 1.000000
vn 0.000000 0.000000 1.000000
vn 0.000000 0.000000 1.000000
vn 0.000000 0.000000 1.000000
vn 0.000000 0.000000 1.000000
vn 0.000000 0.000000 1.000000
vn 0.000000 0.000000 1.000000
vn 0.000000 0.000000 1.000000
vn 0.000000 0.000000 1.000000
vn 0.000000 0.000000 1.000000
vn 0.000000 0.000000 1.000000
vn 0.000000 0.000000 1.000000
vn 0.000000 0.000000 1.000000
vn 0.000000 0.000000 1.000000
vn 0.000000 0.000000 1.000000
vn 0.000000 0.000000 1.000000
vn 0.000000 0.000000 1.000000
vn 0.000000 0.000000 1.000000
vn 0.000000 0.000000 1.000000
vn 0.000000 0.000000 1.000000
vn 0.000000 0.000000 1.000000
vn 0.000000 0.000000 1.000000
vn 0.000000 0.000000 1.000000
vn 0.000000 0.000000 1.000000
vn 0.000000 0.000000 1.000000
vn 0.000000 0.000000 1.000000
vn 0.000000 0.000000 1.000000
vn 0.000000 0.000000 1.000000
vn 0.000000 0.000000 1.000000
vn 0.000000 0.000000 1.000000
vn 0.000000 0.000000 1.000000
vn 0.000000 0.000000 1.000000
vn 0.000000 0.000000 1.000000
vn 0.000000 0.000000 1.000000
vn 0.000000 0.000000 1.000000
vn 0.000000 0.000000 1.000000
vn 0.000000 0.000000 1.000000
vn 0.000000 0.000000 1.000000
vn 0.000000 0.000000 1.000000
vn 0.000000 0.000000 1.000000
vn 0.000000 0.000000 1.000000
vn 0.000000 0.000000 1.000000
vn 0.000000 0.000000 1.000000
vn 0.000000 0.000000 1.000000
vn 0.000000 0.000000 1.000000
vn 0.000000 0.000000 1.000000
vn 0.000000 0.000000 1.000000
vn 0.000000 0.000000 1.000000
vn 0.000000 0.000000 1.000000
vn 0.000000 0.000000 1.000000
vn 0.000000 0.000000 1.000000
vn 0.000000 0.000000 1.000000
vn 0.000000 0.000000 1.000000
vn 0.000000 0.000000 1.000000
vn 0.000000 0.000000 1.000000
vn 0.000000 0.000000 1.000000
vn 0.000000 0.000000 1.000000
vn 0.000000 0.000000 1.000000
vn 0.000000 0.000000 1.000000
vn 0.000000 0.000000 1.000000
vn 0.000000 0.000000 1.000000
vn 0.000000 0.000000 1.000000
vn 0.000000 0.000000 1.000000
vn 0.000000 0.000000 1.000000
vn 0.000000 0.000000 1.000000
vn 0.000000 0.000000 1.000000
vn 0.000000 -1.000000 -0.000000
vn 0.000000 -1.000000 -0.000000
vn 0.000000 -1.000000 -0.000000
vn 0.000000 -1.000000 -0.000000
vn -0.999683 0.000000 0.025176
vn -0.999683 0.000000 0.025176
vn -0.999683 0.000000 0.025176
vn -0.999683 0.000000 0.025176
vn 0.000000 -1.000000 -0.000000
vn 0.000000 -1.000000 -0.000000
vn 0.000000 -1.000000 -0.000000
vn 0.000000 -1.000000 -0.000000
vn 0.000000 -1.000000 0.000000
vn 0.000000 -1.000000 0.000000
vn 0.000000 -1.000000 0.000000
vn 0.000000 -1.000000 0.000000
vn 0.998371 0.000000 0.057062
vn 0.998371 0.000000 0.057062
vn 0.998371 0.000000 0.057062
vn 0.998371 0.000000 0.057062
vn 0.000000 1.000000 0.000000
vn 0.000000 1.000000 0.000000
vn 0.000000 1.000000 0.000000
vn 0.000000 1.000000 0.000000
vn -0.999683 0.000000 0.025176
vn -0.999683 0.000000 0.025176
vn -0.999683 0.000000 0.025176
vn -0.999683 0.000000 0.025176
vn 0.000000 1.000000 0.000000
vn 0.000000 1.000000 0.000000
vn 0.000000 1.000000 0.000000
vn 0.000000 1.000000 0.000000
vn 0.998371 0.000000 0.057062
vn 0.998371 0.000000 0.057062
vn 0.998371 0.000000 0.057062
vn 0.998371 0.000000 0.057062
vn 0.000000 1.000000 -0.000000
vn 0.000000 1.000000 -0.000000
vn 0.000000 1.000000 -0.000000
vn 0.000000 1.000000 -0.000000
vn 0.000000 -1.000000 0.000000
vn 0.000000 -1.000000 0.000000
vn 0.000000 -1.000000 0.000000
vn 0.000000 -1.000000 0.000000
vn -0.999672 0.000000 0.025600
vn -0.999672 0.000000 0.025600
vn -0.999672 0.000000 0.025600
vn -0.999672 0.000000 0.025600
vn 0.000000 -1.000000 0.000000
vn 0.000000 -1.000000 0.000000
vn 0.000000 -1.000000 0.000000
vn 0.000000 -1.000000 0.000000
vn 0.000000 -1.000000 0.000000
vn 0.000000 -1.000000 0.000000
vn 0.000000 -1.000000 0.000000
vn 0.000000 -1.000000 0.000000
vn 0.998241 0.000000 0.059283
vn 0.998241 0.000000 0.059283
vn 0.998241 0.000000 0.059283
vn 0.998241 0.000000 0.059283
vn 0.000000 1.000000 -0.000000
vn 0.000000 1.000000 -0.000000
vn 0.000000 1.000000 -0.000000
vn 0.000000 1.000000 -0.000000
vn -0.999672 0.000000 0.025600
vn -0.999672 0.000000 0.025600
vn -0.999672 0.000000 0.025600
vn -0.999672 0.000000 0.025600
vn 0.000000 1.000000 -0.000000
vn 0.000000 1.000000 -0.000000
vn 0.000000 1.000000 -0.000000
vn 0.000000 1.000000 -0.000000
vn 0.998241 0.000000 0.059283
vn 0.998241 0.000000 0.059283
vn 0.998241 0.000000 0.059283
vn 0.998241 0.000000 0.059283
vn 0.000000 1.000000 -0.000000
vn 0.000000 1.000000 -0.000000
vn 0.000000 1.000000 -0.000000
vn 0.000000 1.000000 -0.000000
s 1
g pCube13
usemtl initialShadingGroup
f 1/1/1 2/2/2 8/8/3 7/7/4
f 2/2/2 3/3/5 9/9/6 8/8/3
f 3/3/5 4/4/7 10/10/8 9/9/6
f 4/4/7 5/5/9 11/11/10 10/10/8
f 5/5/9 6/6/11 12/12/12 11/11/10
f 7/7/4 8/8/3 14/14/13 13/13/14
s 2
f 101/125/15 102/126/16 103/15/17 104/127/18
f 102/126/16 105/128/19 106/16/20 103/15/17
f 105/128/19 107/129/21 108/130/22 106/16/20
s 1
f 11/11/10 12/12/12 16/18/23 15/17/24
f 13/13/14 14/14/13 18/20/25 17/19/26
s 2
f 104/127/18 103/15/17 109/131/27 110/132/28
f 103/15/17 106/16/20 111/133/29 109/131/27
f 106/16/20 108/130/22 112/134/30 111/133/29
s 1
f 15/17/24 16/18/23 22/24/31 21/23/32
f 17/19/26 18/20/25 24/26/33 23/25/34
s 3
f 113/135/35 114/136/36 115/27/37 116/137/38
f 114/136/36 117/138/39 118/28/40 115/27/37
f 117/138/39 119/139/41 120/140/42 118/28/40
s 1
f 21/23/32 22/24/31 26/30/43 25/29/44
f 23/25/34 24/26/33 28/32/45 27/31/46
s 3
f 116/137/38 115/27/37 121/141/47 122/142/48
f 115/27/37 118/28/40 123/143/49 121/141/47
f 118/28/40 120/140/42 124/144/50 123/143/49
s 1
f 25/29/44 26/30/43 32/36/51 31/35/52
f 27/31/46 28/32/45 34/38/53 33/37/54
f 28/32/45 29/33/55 35/39/56 34/38/53
f 29/33/55 30/34/57 36/40/58 35/39/56
f 30/34/57 31/35/52 37/41/59 36/40/58
f 31/35/52 32/36/51 38/42/60 37/41/59
s 4
f 33/37/61 34/38/62 40/44/63 39/43/64
f 34/38/62 35/39/65 41/45/66 40/44/63
f 35/39/65 36/40/67 42/46/68 41/45/66
f 36/40/67 37/41/69 43/47/70 42/46/68
f 37/41/69 38/42/71 44/48/72 43/47/70
s 5
f 39/43/73 40/44/74 46/50/75 45/49/76
f 40/44/74 41/45/77 47/51/78 46/50/75
f 41/45/77 42/46/79 48/52/80 47/51/78
f 42/46/79 43/47/81 49/53/82 48/52/80
f 43/47/81 44/48/83 50/54/84 49/53/82
f 45/49/76 46/50/75 52/56/85 51/55/86
f 46/50/75 47/51/78 53/57/87 52/56/85
f 47/51/78 48/52/80 54/58/88 53/57/87
f 48/52/80 49/53/82 55/59/89 54/58/88
f 49/53/82 50/54/84 56/60/90 55/59/89
f 51/55/86 52/56/85 58/62/91 57/61/92
f 52/56/85 53/57/87 59/63/93 58/62/91
f 53/57/87 54/58/88 60/64/94 59/63/93
f 54/58/88 55/59/89 61/65/95 60/64/94
f 55/59/89 56/60/90 62/66/96 61/65/95
f 57/61/92 58/62/91 64/68/97 63/67/98
f 58/62/91 59/63/93 65/69/99 64/68/97
f 59/63/93 60/64/94 66/70/100 65/69/99
f 60/64/94 61/65/95 67/71/101 66/70/100
f 61/65/95 62/66/96 68/72/102 67/71/101
f 63/67/98 64/68/97 70/74/103 69/73/104
f 64/68/97 65/69/99 71/75/105 70/74/103
f 65/69/99 66/70/100 72/76/106 71/75/105
f 66/70/100 67/71/101 73/77/107 72/76/106
f 67/71/101 68/72/102 74/78/108 73/77/107
f 69/73/104 70/74/103 76/80/109 75/79/110
f 70/74/103 71/75/105 77/81/111 76/80/109
f 71/75/105 72/76/106 78/82/112 77/81/111
f 72/76/106 73/77/107 79/83/113 78/82/112
f 73/77/107 74/78/108 80/84/114 79/83/113
s 6
f 75/79/115 76/80/116 2/86/117 1/85/118
f 76/80/116 77/81/119 3/87/120 2/86/117
f 77/81/119 78/82/121 4/88/122 3/87/120
f 78/82/121 79/83/123 5/89/124 4/88/122
f 79/83/123 80/84/125 6/90/126 5/89/124
s 7
f 6/6/127 80/91/128 74/92/129 12/12/130
f 12/12/130 74/92/129 68/93/131 16/18/132
f 16/18/132 68/93/131 62/94/133 22/24/134
f 22/24/134 62/94/133 56/95/135 26/30/136
f 26/30/136 56/95/135 50/96/137 32/36/138
f 32/36/138 50/96/137 44/97/139 38/42/140
s 8
f 75/98/141 1/1/142 7/7/143 69/99/144
f 69/99/144 7/7/143 13/13/145 63/100/146
f 63/100/146 13/13/145 17/19/147 57/101/148
f 57/101/148 17/19/147 23/25/149 51/102/150
f 51/102/150 23/25/149 27/31/151 45/103/152
f 45/103/152 27/31/151 33/37/153 39/104/154
s off
f 18/20/155 19/21/156 82/106/157 81/105/158
f 24/26/159 18/20/160 81/105/161 83/107/162
f 19/21/163 20/22/164 84/108/165 82/106/166
f 20/22/167 21/23/168 85/109/169 84/108/170
f 21/23/171 25/29/172 86/110/173 85/109/174
f 29/33/175 28/32/176 88/112/177 87/111/178
f 28/32/179 24/26/180 83/107/181 88/112/182
f 30/34/183 29/33/184 87/111/185 89/113/186
f 25/29/187 31/35/188 90/114/189 86/110/190
f 31/35/191 30/34/192 89/113/193 90/114/194
f 8/8/195 9/9/196 92/116/197 91/115/198
f 14/14/199 8/8/200 91/115/201 93/117/202
f 9/9/203 10/10/204 94/118/205 92/116/206
f 10/10/207 11/11/208 95/119/209 94/118/210
f 11/11/211 15/17/212 96/120/213 95/119/214
f 19/21/215 18/20/216 98/122/217 97/121/218
f 18/20/219 14/14/220 93/117/221 98/122/222
f 20/22/223 19/21/224 97/121/225 99/123/226
f 15/17/227 21/23/228 100/124/229 96/120/230
f 21/23/231 20/22/232 99/123/233 100/124/234
f 91/115/235 92/116/236 102/126/237 101/125/238
f 93/117/239 91/115/240 101/125/241 104/127/242
f 92/116/243 94/118/244 105/128/245 102/126/246
f 94/118/247 95/119/248 107/129/249 105/128/250
f 95/119/251 96/120/252 108/130/253 107/129/254
f 97/121/255 98/122/256 110/132/257 109/131/258
f 98/122/259 93/117/260 104/127/261 110/132/262
f 99/123/263 97/121/264 109/131/265 111/133/266
f 96/120/267 100/124/268 112/134/269 108/130/270
f 100/124/271 99/123/272 111/133/273 112/134/274
f 81/105/275 82/106/276 114/136/277 113/135/278
f 83/107/279 81/105/280 113/135/281 116/137/282
f 82/106/283 84/108/284 117/138/285 114/136/286
f 84/108/287 85/109/288 119/139/289 117/138/290
f 85/109/291 86/110/292 120/140/293 119/139/294
f 87/111/295 88/112/296 122/142/297 121/141/298
f 88/112/299 83/107/300 116/137/301 122/142/302
f 89/113/303 87/111/304 121/141/305 123/143/306
f 86/110/307 90/114/308 124/144/309 120/140/310
f 90/114/311 89/113/312 123/143/313 124/144/314
